<?xml version="1.0" encoding="UTF-8" standalone="no"?>
<svg
   xmlns:dc="http://purl.org/dc/elements/1.1/"
   xmlns:cc="http://creativecommons.org/ns#"
   xmlns:rdf="http://www.w3.org/1999/02/22-rdf-syntax-ns#"
   xmlns:svg="http://www.w3.org/2000/svg"
   xmlns="http://www.w3.org/2000/svg"
   xmlns:sodipodi="http://sodipodi.sourceforge.net/DTD/sodipodi-0.dtd"
   xmlns:inkscape="http://www.inkscape.org/namespaces/inkscape"
   viewBox="0 0 296 296"
   version="1.1"
   id="svg855"
   sodipodi:docname="Background-Move-Bed.svg"
   width="296"
   height="296"
   inkscape:version="0.92.3 (2405546, 2018-03-11)">
  <metadata
     id="metadata861">
    <rdf:RDF>
      <cc:Work
         rdf:about="">
        <dc:format>image/svg+xml</dc:format>
        <dc:type
           rdf:resource="http://purl.org/dc/dcmitype/StillImage" />
        <dc:title>Background-Move-Bed_1</dc:title>
      </cc:Work>
    </rdf:RDF>
  </metadata>
  <defs
     id="defs859" />
  <sodipodi:namedview
     pagecolor="#ffffff"
     bordercolor="#666666"
     borderopacity="1"
     objecttolerance="10"
     gridtolerance="10"
     guidetolerance="10"
     inkscape:pageopacity="0"
     inkscape:pageshadow="2"
     inkscape:window-width="3200"
     inkscape:window-height="1675"
     id="namedview857"
     showgrid="true"
     inkscape:pagecheckerboard="true"
     inkscape:zoom="8.6216216"
     inkscape:cx="148"
     inkscape:cy="58.950001"
     inkscape:window-x="-13"
     inkscape:window-y="-13"
     inkscape:window-maximized="1"
     inkscape:current-layer="svg855">
    <inkscape:grid
       type="xygrid"
       id="grid863" />
  </sodipodi:namedview>
  <title
     id="title839">Background-Move-Bed_1</title>
  <path
     d="m 2.39,275.42 0.15,0.26 v 0 l 0.29,0.31 0.43,0.28 v 0 l 0.26,0.12 0.6,0.19 0.67,0.12 h 0.7 0.36 l 0.72,-0.08 0.69,-0.16 0.63,-0.23 0.55,-0.29 0.45,-0.36 0.26,-0.31 v 0 -0.07 l 0.1,-0.22 0.06,-0.19 c 0,0 0,0 0,0 v -0.26 -0.23 l 0,-0.2 L 9.19,273.9 9,273.7 8.61,273.37 8.14,273.1 7.54,272.9 6.88,272.79 H 6.18 5.82 l -0.71,0.08 -0.69,0.16 -0.63,0.22 -0.55,0.3 -0.44,0.35 -0.18,0.2 -0.14,0.2 -0.11,0.22 -0.05,0.19 c 0,0 0,0 0,0 v 0.23 0.23 z m 5.78,-0.42 -0.29,0.46 -0.93,0.5 -1.29,0.21 -0.81,-0.07 -0.76,-0.24 -0.4,-0.3 -0.15,-0.37 v -0.09 l 0.28,-0.46 0.93,-0.5 1.29,-0.21 h 0.59 l 0.9,0.24 0.48,0.34 0.15,0.37 z M 3,274.39 l 0.3,-0.3 0.43,-0.28 0.53,-0.23 0.6,-0.18 0.64,-0.11 h 0.67 0.65 l 0.59,0.11 0.53,0.17 0.42,0.22 0.3,0.24 0.18,0.26 0.07,0.26 v 0.17 0.12 l -0.1,0.2 -0.1,0.1 v -0.23 0 -0.09 -0.09 l -0.14,-0.33 -0.4,-0.42 -0.8,-0.37 -1.13,-0.16 -0.94,0.08 -1.09,0.34 -0.65,0.42 -0.32,0.39 -0.12,0.32 v 0 0 0.18 H 3 v 0.27 l -0.1,-0.11 -0.09,-0.15 -0.06,-0.26 v -0.16 -0.13 z"
     style="fill:#ffffff"
     id="path841"
     inkscape:connector-curvature="0" />
  <path
     d="m 144.41,274.79 v 0.23 l 0.08,0.22 0.13,0.24 v 0 l 0.3,0.34 0.45,0.33 0.55,0.26 0.64,0.2 0.68,0.11 h 0.72 0.72 l 0.68,-0.12 0.63,-0.2 0.54,-0.26 0.44,-0.34 0.24,-0.28 v 0 l 0.17,-0.33 0.06,-0.22 v -0.19 c 0,0 0,0 0,0 v -0.23 l -0.07,-0.22 -0.11,-0.21 -0.16,-0.2 -0.18,-0.18 -0.45,-0.32 -0.55,-0.26 -0.64,-0.2 -0.68,-0.11 h -0.71 -0.71 l -0.68,0.12 -0.63,0.19 -0.55,0.27 -0.44,0.33 -0.17,0.19 -0.15,0.21 -0.1,0.22 v 0.22 0.19 c 0,0 0,0 0,0 z m 5.85,0.28 v 0 l -0.17,0.38 -0.8,0.49 -1.24,0.21 -1.16,-0.14 -0.74,-0.31 -0.38,-0.33 -0.12,-0.35 v 0 l 0.17,-0.39 0.8,-0.48 1.24,-0.21 1.14,0.16 0.73,0.3 0.38,0.34 0.13,0.35 z m -5.26,-0.71 0.23,-0.29 0.36,-0.26 0.47,-0.23 0.56,-0.18 0.62,-0.11 h 0.66 0.33 l 0.64,0.08 0.61,0.14 0.52,0.2 0.43,0.24 0.31,0.28 0.18,0.27 0.07,0.3 v 0.25 l -0.11,0.22 -0.09,0.11 v -0.28 0 0 0 -0.18 l -0.19,-0.42 -0.44,-0.41 -0.83,-0.39 -1.33,-0.26 -1.05,0.1 -0.91,0.32 -0.51,0.37 -0.28,0.39 -0.09,0.41 v 0 0.27 l -0.1,-0.12 v 0 l -0.06,-0.08 -0.06,-0.31 v -0.11 z"
     style="fill:#ffffff"
     id="path843"
     inkscape:connector-curvature="0" />
  <path
     d="m 286.53,274.81 c 0,0 0,0 0,0 l 0.08,0.23 0.1,0.18 v 0 0 l 0.15,0.2 0.39,0.37 0.51,0.31 0.6,0.26 0.67,0.2 0.71,0.11 h 0.73 0.7 l 0.67,-0.12 0.59,-0.2 0.31,-0.17 v 0 l 0.14,-0.07 v 0 l 0.21,-0.17 0.22,-0.25 v 0 l 0.18,-0.34 0.06,-0.23 v -0.23 -0.18 c 0,0 0,0 0,0 v 0 l -0.08,-0.22 -0.12,-0.22 -0.15,-0.19 -0.4,-0.37 -0.51,-0.32 -0.6,-0.26 -0.66,-0.19 -0.71,-0.11 h -0.72 -0.7 l -0.66,0.12 -0.6,0.2 -0.5,0.27 -0.2,0.16 -0.18,0.19 -0.14,0.2 -0.1,0.21 -0.06,0.23 v 0.22 0.19 z m 5.83,0.3 v 0.13 l -0.09,0.26 -0.67,0.46 -1.18,0.21 -1,-0.09 -1,-0.32 -0.56,-0.4 -0.21,-0.37 v -0.12 l 0.09,-0.26 0.67,-0.47 1.18,-0.2 1,0.09 1,0.32 0.56,0.4 z m -5.36,-0.78 0.16,-0.27 0.29,-0.26 0.41,-0.23 0.52,-0.17 0.59,-0.11 h 0.65 0.38 l 0.67,0.08 0.63,0.14 0.58,0.2 0.49,0.25 0.38,0.29 0.25,0.29 0.14,0.32 v 0.1 0.27 l -0.13,0.22 -0.1,0.1 v -0.27 0 -0.07 -0.15 0 c 0,0 0,0 0,0 v -0.09 l -0.24,-0.4 -0.47,-0.42 -1,-0.44 -1.31,-0.19 -0.91,0.08 -0.79,0.25 -0.51,0.34 -0.27,0.38 -0.09,0.38 v 0 0.15 l -0.1,-0.11 -0.07,-0.13 -0.15,-0.16 v -0.11 z"
     style="fill:#ffffff"
     id="path845"
     inkscape:connector-curvature="0" />
  <path
     d="m 296,282.62 c 0,0 0,0 0,0 0,0 0,0 0,0 l -0.47,-2 0.05,-0.06 0.14,-0.28 0.1,-0.29 v -0.28 -0.12 0 l 0.06,-4.36 v 0 -0.44 0 l -22.37,-92.37 v 0 l -0.08,-0.23 -0.12,-0.22 -0.16,-0.21 -0.41,-0.39 -0.53,-0.35 -0.63,-0.31 -0.58,-0.2 v -0.83 0 c 0,0 0,-0.08 0,-0.08 0,0 0,-0.08 0,-0.08 v -0.1 0 -0.08 -0.06 c 0,0 0,-0.07 0,-0.07 l -0.14,-0.11 v -0.06 l -0.21,-0.25 -0.7,-0.38 -0.15,-0.05 v 0 h -0.09 l -1.4,-0.26 h -0.55 l -0.46,0.12 h -0.18 -0.1 l -0.24,0.06 -0.5,0.35 v 0.06 a 0.15,0.15 0 0 0 -0.05,0.06 c 0,0 0,0.06 0,0.06 v 0.07 0.07 a 0.49,0.49 0 0 1 0,0.07 c 0,0 0,0.07 0,0.08 0,0.01 0,0.07 0,0.08 0,0.01 0,0.07 0,0.08 v 0.08 0 0.58 H 25.83 v -0.45 0 -0.14 -0.11 a 0.26,0.26 0 0 1 0,-0.08 v -0.07 c 0,0 0,-0.07 0,-0.07 a 0.49,0.49 0 0 0 0,-0.07 l -0.2,-0.07 -0.05,-0.07 -0.06,-0.06 -0.05,-0.06 -0.55,-0.3 h -0.07 v 0 l -0.1,-0.05 -1.13,-0.22 H 23.48 23.32 23 l -0.23,0.06 -0.52,0.07 -0.31,0.17 h -0.11 l -0.1,0.07 -0.29,0.12 -0.44,0.42 v 0.09 c 0,0 0,0 0,0 a 0.79,0.79 0 0 1 0,0.09 0.49,0.49 0 0 1 0,0.07 v 0.13 0 c 0,0 0,0.06 0,0.07 v 0.14 0 0.79 l -0.33,0.1 -0.66,0.28 -0.58,0.34 -0.46,0.38 -0.18,0.21 -0.14,0.22 -0.11,0.22 -0.06,0.2 v 0 L 0,274.71 v 0 0.39 0 l 0.05,4.38 v 0 0.23 l 0.07,0.29 0.11,0.28 0.16,0.27 v 0 l -0.39,2 c 0,0 0,0 0,0 v 0 l 0.08,7.31 c 0,0 0,0.07 0,0.11 0,0.04 0,0 0,0.06 a 0.24,0.24 0 0 0 0.17,0.07 H 1 l 0.13,0.25 0.19,0.29 0.21,0.26 0.23,0.22 0.24,0.2 0.26,0.15 0.27,0.11 0.28,0.06 h 0.25 0.09 v 2.54 0 0 0 0 0.13 0 0.2 l 0.25,0.45 0.41,0.37 0.76,0.34 1.14,0.14 1,-0.12 1,-0.34 0.58,-0.42 0.32,-0.42 0.17,-0.45 v 0 -0.06 c 0,0 0,-0.08 0,-0.09 v -0.12 0 -1.21 h 136.31 v 1.52 0 0.07 0 l 0.08,0.39 0.25,0.44 0.5,0.43 0.88,0.37 1.14,0.15 h 0.39 l 1,-0.2 0.74,-0.37 0.4,-0.37 0.24,-0.45 0.05,-0.32 v -0.06 -0.07 0 -1.38 h 83.06 a 0.19,0.19 0 0 0 0.1,0 v 0 0 0 -0.08 0 0 0 0 0 0 l 0.66,-1.27 0.06,-0.11 0.21,-0.22 0.32,-0.2 0.4,-0.16 0.47,-0.12 0.79,-0.06 h 25.52 l 0.81,0.06 0.76,0.19 0.43,0.19 0.35,0.22 0.28,0.26 1.1,1.27 v 0 h 0.05 0.05 c 0,0 0,0 0,0.05 l 0.08,0.06 v 0 0 0 h 0.05 20.27 v 1.17 0 0.2 c 0,0 0,0.09 0,0.1 v 0 0 l 0.09,0.28 0.28,0.43 0.63,0.49 0.93,0.37 1.17,0.15 h 0.26 l 1,-0.17 0.63,-0.3 0.41,-0.37 0.24,-0.45 v -0.2 -0.06 0 -0.11 0 -2.57 h 0.11 0.29 l 0.27,-0.07 0.27,-0.12 0.25,-0.15 0.24,-0.2 0.23,-0.22 0.39,-0.55 0.12,-0.23 h 0.79 a 0.26,0.26 0 0 0 0.17,-0.07 c 0,0 0,0 0,0 a 0.18,0.18 0 0 0 0.05,-0.12 l 0.11,-7.31 z m -2,7.06 0.09,-6.81 h 1.37 l -0.1,6.81 z m -6.85,2.59 H 267 l 0.15,-2.1 h 24.19 l -0.05,1.39 -0.09,0.71 z m -49.86,-4.91 h 25 v 2.41 h -25 z m 25.3,-0.5 h -25.52 -0.58 l -0.56,0.1 -0.5,0.16 -0.44,0.22 -0.35,0.29 -0.23,0.3 v 0 0 l -0.16,0.3 v -5.67 0 c 0,0 0,0 0,0 0,0 0,0 0,0 l -0.15,-1 c 0,0 0,0 0,0 l 0.26,-0.14 0.55,-0.41 0.22,-0.23 0.19,-0.24 0.14,-0.23 v 0 l 0.46,-0.86 v 0 0 l 0.21,-0.19 0.51,-0.21 0.68,-0.08 h 25.28 0.35 l 0.66,0.15 0.4,0.18 0.28,0.23 0.75,0.86 v 0 l 0.24,0.24 0.55,0.45 0.67,0.4 0.13,0.05 c 0,0 0,0 0,0.08 0,0.08 0,0 0,0 0,0 0,0 0,0 l -0.09,7.37 -0.89,-1 v 0 l -0.16,-0.16 -0.38,-0.28 -0.47,-0.24 -0.52,-0.19 -0.57,-0.12 z m -28.29,4.1 -0.19,0.37 0.08,-1.4 v 0 -0.54 l 0.13,-0.25 z M 8.67,292.27 H 4.74 l -0.12,-2.1 h 229.1 l -0.05,1.66 v 0.44 z M 0.6,289.68 0.52,282.87 H 1.88 L 2,289.68 Z m 266.65,-7.31 -0.1,-0.51 h 0.46 l 0.51,0.17 0.9,0.19 0.92,0.13 h 0.53 z m 26.05,-0.36 0.09,0.36 h -2.14 l 0.91,-0.09 0.9,-0.19 z m 0.78,0.36 -0.13,-0.58 0.29,-0.14 0.34,-0.19 0.3,-0.21 0.24,-0.2 0.32,1.32 z m 1.28,-2.85 v 0 0.3 l -0.07,0.21 -0.11,0.21 -0.11,0.15 v 0 0.06 l -0.19,0.2 -0.49,0.38 -0.65,0.32 -0.34,0.13 -0.81,0.22 -0.88,0.13 h -0.69 l 0.05,-3.9 h 0.75 l 0.93,-0.14 0.86,-0.23 0.77,-0.32 0.33,-0.18 0.3,-0.21 0.27,-0.23 0.2,-0.21 z m -4.91,2.37 h -19.32 l 0.05,-3.89 h 19.32 z m -19.82,0 h -0.2 l -0.89,-0.08 -0.87,-0.15 -0.83,-0.22 -0.75,-0.29 -0.67,-0.34 -0.56,-0.38 -0.38,-0.37 v -3.71 l 0.37,0.3 0.67,0.39 0.76,0.34 0.84,0.27 0.9,0.19 0.92,0.12 h 0.69 z m -5.63,-2.39 -0.27,-0.3 v -3.63 l 0.26,0.3 z m -0.76,-0.71 -0.45,-0.21 -0.57,-0.14 h -0.35 v -3.88 h 0.1 l 0.66,0.15 0.4,0.18 0.22,0.17 z m -1.87,-0.4 h -24.75 v -3.88 h 24.78 z m -25.24,0 H 237 l -0.56,0.12 -0.42,0.19 v -3.71 l 0.22,-0.22 0.51,-0.2 h 0.42 z m -2.13,1.71 -0.08,0.14 -0.35,0.39 -0.47,0.36 -0.6,0.31 -0.7,0.25 -0.78,0.19 -0.84,0.12 h -0.64 v -3.9 h 0.68 l 0.89,-0.12 0.83,-0.2 0.76,-0.27 0.66,-0.35 0.55,-0.41 0.09,-0.09 z m -232.31,1.91 0.73,0.19 0.93,0.14 H 4.97 2.62 Z m 230.71,-0.15 h 0.28 l 0.07,0.51 h -3 0.54 l 0.88,-0.12 0.83,-0.2 z m -3.33,0 H 5.58 v -3.89 H 230.1 Z M 5,277.98 v 3.9 H 4.32 l -0.88,-0.13 -0.83,-0.21 -0.35,-0.13 -0.57,-0.31 -0.51,-0.37 -0.2,-0.2 -0.09,-0.12 v 0 L 0.83,280.33 0.7,280.1 0.61,279.89 v -0.22 -0.19 0 -3.08 l 0.05,0.06 0.24,0.23 0.27,0.22 0.31,0.21 0.34,0.18 0.78,0.31 0.87,0.23 0.93,0.14 z m -4.15,3.12 0.27,0.22 0.31,0.2 0.34,0.19 0.27,0.11 -0.12,0.6 H 0.57 l 0.26,-1.34 z m 1.8,8.63 -0.08,-6.81 h 231.22 l -0.06,6.81 z m 1.47,0.49 v 1.22 L 3.86,291.35 H 3.53 v 0 -1.09 z m 261.55,-1.4 0.83,1 v 2.16 l -0.83,-1 z m 26.68,2.48 -0.38,0.06 -0.18,0.06 0.08,-1.2 h 0.49 z m 0.27,-1.57 h -25.41 l 0.08,-6.81 h 26.16 l -0.1,6.81 z M 266.65,179.1 h 0.06 v 0 h 0.06 v 0 0 h 0.06 v 0 l 0.72,-0.18 -0.36,0.34 v 0 a 0.17,0.17 0 0 0 0,0.07 0.29,0.29 0 0 0 0,0.09 0.32,0.32 0 0 0 0,0.09 c 0,0 0,0.05 0,0.06 v 0 0 l 0.48,0.32 -0.46,-0.11 -0.49,-0.33 -0.12,0.05 c 0,0 0,0 0,-0.06 l 0.06,-0.05 h -0.05 c 0,0 0,-0.06 0,-0.1 v 0 c 0,0 0,0 0,-0.06 h 0.06 l -0.22,-0.14 h 0.11 z m 3.2,-0.13 0.42,0.28 v 0 h 0.05 v 0 0 c 0,0 0,0 0,0.07 v 0 c 0,0 0,0 0,0 v 0.05 0 l 0.17,0.11 v 0 h -0.23 l 0.21,0.14 -0.26,-0.08 0.19,0.16 -0.24,-0.12 -0.72,0.19 0.35,-0.35 v 0 0 c 0,0 0,-0.05 0,-0.07 a 0.29,0.29 0 0 0 0,-0.09 0.18,0.18 0 0 0 0,-0.09 c 0,0 0,0 0,-0.06 v 0 l -0.48,-0.32 0.29,0.07 z m 0.69,3.66 h -0.16 l -0.22,0.16 -1.4,0.3 -0.95,-0.09 -0.93,-0.32 -0.37,-0.33 v 0 0 0 0 0 -0.19 0 -0.06 -1.59 a 0.25,0.25 0 0 0 0.2,-0.19 l 0.63,0.31 1.49,0.2 h 0.46 l 1,-0.25 0.24,-0.16 v 1.93 0 0.09 0 l 0.06,0.07 h -0.07 0.12 v 0 z m -2.48,-3.53 h 0.66 v 0.42 h -0.61 -0.05 z m 1.16,0.3 v -0.09 0 z M 25,179.01 v 0 h 0.07 v 0.09 0 h 0.05 v 0.05 h 0.11 v 0.05 0 0 0 0 c 0,0 0,0 0,0 v 0 c 0,0 0,0 0,0 v 0 c 0,0 0,0 0,0 0,0 0,0 0,0 h -0.05 0.05 c 0,0 0,0 0,0.05 h -0.1 l 0.2,0.14 -0.33,0.07 -0.35,0.24 -0.49,0.1 0.42,-0.28 v 0 c 0,0 0,0 0,0 0,0 0,0 0,-0.07 0,-0.07 0,-0.05 0,-0.08 a 0.29,0.29 0 0 0 0,-0.09 c 0,0 0,0 0,-0.07 v 0 l -0.39,-0.51 0.35,0.07 z m -1.26,0.09 v 0.42 h -0.66 v -0.42 z m -1.15,0.22 v 0.05 0 z m -1.3,3.22 0.08,-0.07 v 0 0 -0.12 0 -1.93 l 0.54,0.28 1.31,0.17 1.15,-0.14 0.86,-0.34 0.15,-0.12 v 1.83 0 0 0 0 0 c 0,0 0,0 0,0 v 0.06 0 l -0.52,0.38 -1.55,0.3 H 23 l -1,-0.18 -0.5,-0.28 -0.17,0.1 0.09,-0.12 v 0 l 0.05,-0.05 z m 4.08,-3.44 z M 22,178.92 22.48,178.82 22,179.1 c 0,0 0,0 0,0 0,0 0,0 0,0 0,0 0,0 0,0.07 0,0.07 0,0 0,0.08 a 0.24,0.24 0 0 0 0,0.09 c 0,0 0,0.05 0,0.07 v 0 l 0.47,0.44 h -0.28 l -0.58,-0.28 -0.16,0.19 0.1,-0.25 -0.18,0.16 0.14,-0.22 h -0.18 v 0 a 0.24,0.24 0 0 0 0.11,-0.09 v 0 0 c 0,0 0,0 0,0 v 0 c 0,0 0,0 0,0 v 0 c 0,0 0,0 0,0 0,0 0,0 0,0 v 0 h 0.07 v 0 l 0.22,-0.17 z m -3.21,3.63 0.12,-0.31 0.24,-0.33 0.39,-0.32 0.52,-0.3 0.61,-0.26 0.17,-0.05 v 1.37 0 0 0 a 0.15,0.15 0 0 0 0,0.06 v 0.11 c 0,0 0,0.07 0,0.08 v 0.08 0.07 0.07 l 0.05,0.07 0.05,0.07 0.11,0.11 0.72,0.4 1.27,0.18 1.11,-0.14 0.86,-0.34 0.44,-0.38 c 0,0 0,-0.06 0.05,-0.06 v -0.07 -0.07 -0.08 -0.08 -0.12 -0.01 0 -0.2 0 -1.57 H 266 v 1.57 c 0,0 0,0 0,0 v 0 0.24 0 0 0.08 0.07 0.08 0.07 l 0.27,0.3 0.85,0.45 1.4,0.22 h 0.65 l 0.88,-0.25 0.49,-0.33 0.05,-0.06 v -0.06 c 0,0 0,-0.06 0,-0.07 v -0.06 -0.07 -0.07 -0.08 -0.1 -0.11 0 -1.35 h 0.07 l 0.63,0.25 0.53,0.3 0.4,0.32 0.26,0.31 0.15,0.34 22.35,92.26 0.05,0.35 v 0.29 l -0.07,0.21 -0.11,0.21 -0.15,0.21 -0.41,0.39 -0.57,0.35 -0.69,0.29 -0.81,0.21 -0.88,0.13 -0.95,0.05 h -19.91 l -0.88,-0.08 -0.88,-0.15 -0.82,-0.22 -0.76,-0.29 -0.67,-0.34 -0.55,-0.38 -0.46,-0.42 -0.75,-0.86 v 0 l -0.38,-0.3 -0.49,-0.23 -0.58,-0.14 H 262.67 237.4 237 l -0.56,0.12 -0.47,0.21 -0.25,0.2 -0.16,0.21 v 0 l -0.45,0.86 -0.12,0.19 -0.35,0.38 -0.47,0.36 -0.6,0.31 -0.7,0.26 -0.78,0.18 -0.84,0.12 H 230.35 4.81 L 3.9,277.4 3,277.23 2.24,276.98 1.6,276.66 1.09,276.29 0.93,276.1 0.77,275.89 0.65,275.69 0.56,275.48 0.51,275.26 v -0.16 -0.25 z M 2.73,291.18 2.53,291.1 2.13,290.82 1.94,290.64 1.6,290.17 H 2.23 2.31 2.4 3 v 1.06 H 2.93 Z m 5.7,2.79 v 0.1 0.1 l -0.46,0.55 -1,0.43 L 5.76,295.3 5,295.21 4.26,294.94 3.88,294.61 3.76,294.26 v 0 -2.12 h 0.05 l 0.52,0.26 v 0.06 c 0,0 0,0.08 0,0.09 a 0.31,0.31 0 0 0 0.07,0.09 v 0 c 0,0 0,0 0,0 v 0 a 0.25,0.25 0 0 0 0.14,0 h 3.88 z m 141.85,0.16 v 0 0.11 l -0.32,0.49 -0.85,0.42 -1.18,0.15 -1.06,-0.14 -0.74,-0.32 -0.4,-0.36 -0.13,-0.36 v 0 -1.35 h 4.7 z m 85.63,-4.23 -0.51,0.17 -0.44,0.22 -0.11,0.09 v -2.19 l 0.12,-0.18 0.26,-0.21 0.36,-0.18 0.68,-0.19 h 0.54 v 2.4 h -0.35 z m 28.66,0.26 -0.53,-0.19 -0.57,-0.13 h -0.63 v -2.41 h 0.56 l 0.75,0.19 0.44,0.18 0.35,0.22 0.21,0.19 v 2.28 l -0.12,-0.09 z m 26.82,2.6 h 0.06 0.09 v 0 0 a 0.23,0.23 0 0 0 0.07,-0.07 l 0.06,-0.18 0.31,-0.15 0.17,-0.14 v 2.16 0 0.05 l -0.2,0.38 -0.75,0.41 -1.14,0.15 -1.09,-0.15 -0.91,-0.37 -0.45,-0.38 -0.18,-0.33 v -0.11 0 -1.18 z m 2.59,-2.14 -0.38,0.34 -0.2,0.12 -0.19,0.08 -0.21,0.06 h -0.15 v -1.06 h 0.74 c 0,0 0,0 0.08,0 h 0.08 0.53 z"
     style="fill:#ffffff"
     id="path847"
     inkscape:connector-curvature="0" />
  <path
     d="m 7.63,274.98 c 0,0 0,-0.06 0,-0.08 v 0 L 7,274.17 v 0 c 0,0 0,0 -0.06,0 -0.06,0 0,0 0,0 0,0 0,0 0,0 H 5.16 v 0 H 5.1 l -0.91,0.72 v 0 c 0,0 0,0 0,0.07 a 0.18,0.18 0 0 0 0,0.09 c 0,0 0,0.06 0,0.09 a 0.32,0.32 0 0 0 0,0.09 v 0 l 0.65,0.72 v 0 a 0.25,0.25 0 0 0 0.18,0.08 H 6.5 a 0.27,0.27 0 0 0 0.15,0 l 0.92,-0.72 v 0 c 0,0 0,0 0,-0.08 a 0.26,0.26 0 0 0 0,-0.09 c 0,0 0.07,-0.12 0.06,-0.16 z m -2.58,0.54 -0.15,-0.16 0.16,-0.13 v 0.29 z m 0.51,-0.55 H 6.4 v 0.55 H 5.56 Z"
     style="fill:#ffffff"
     id="path849"
     inkscape:connector-curvature="0" />
  <path
     d="m 291.85,275.03 c 0,0 0,-0.06 0,-0.09 0,-0.03 0,-0.06 0,-0.08 v 0 l -0.95,-0.71 h -0.05 c 0,0 0,0 0,0 h -1.66 c 0,0 0,0 0,0 0,0 0,0 0,0 0,0 -0.05,0 -0.06,0 v 0 l -0.61,0.72 v 0 c 0,0 0,0.06 0,0.09 a 0.32,0.32 0 0 0 0,0.09 c 0,0 0,0 0,0.08 0,0.08 0,0.06 0,0.08 v 0 l 0.94,0.72 a 0.3,0.3 0 0 0 0.15,0 H 291 a 0.25,0.25 0 0 0 0.18,-0.08 v 0 l 0.38,-0.45 v 0 l 0.23,-0.27 v 0 c 0,0 0,-0.06 0,-0.08 0,-0.02 0.07,0.05 0.06,-0.02 z m -1,0.49 h -0.07 v -0.3 l 0.19,0.15 z m -1.35,0 h -0.06 v -0.51 h 0.84 v 0.55 z"
     style="fill:#ffffff"
     id="path851"
     inkscape:connector-curvature="0" />
  <path
     d="m 149.72,274.96 c 0,0 0,-0.06 0,-0.08 v 0 l -0.8,-0.72 v 0 h -0.05 -1.65 c 0,0 0,0 0,0 0,0 0,0 0,0 h -0.06 l -0.76,0.72 v 0 c 0,0 0,0 0,0.07 0,0.07 0,0.06 0,0.09 0,0.03 0,0.06 0,0.1 0,0.04 0,0 0,0.07 v 0 l 0.79,0.72 a 0.27,0.27 0 0 0 0.17,0.06 h 1.56 a 0.23,0.23 0 0 0 0.17,-0.07 l 0.76,-0.72 v 0 c 0,0 0,-0.05 0,-0.08 a 0.15,0.15 0 0 0 0,-0.18 z m -2.2,0 h 0.84 v 0.55 h -0.84 z m 1.34,0.36 z"
     style="fill:#ffffff"
     id="path853"
     inkscape:connector-curvature="0" />
</svg>
